# xmcd CD database file
#
# Track frame offsets:
#	150
#	26177
#	54015
#	64855
#	96190
#	109650
#	122975
#	140902
#	171009
#	201417
#	221484
#	235559
#
# Disc length: 3477 seconds
#
# Revision: 1
# Processed by: cddbd v1.5.2PL0 Copyright (c) Steve Scherf et al.
# Submitted via: CDex 1.70beta2
#
DISCID=ae0d930c
DTITLE=Oregon - Troika
DYEAR=1900
DGENRE=New Age
TTITLE0=Charlotte's Tangle
TTITLE1=Gekko
TTITLE2=Prelude
TTITLE3=Mariella
TTITLE4=Spanish Stairs
TTITLE5=Arctic Turn/Land Rover
TTITLE6=Mexico For Sure
TTITLE7=Pale Sun of BK-71
TTITLE8=I Said OK
TTITLE9=Tower
TTITLE10=Minaret
TTITLE11=Celeste
EXTD=
EXTT0=
EXTT1=
EXTT2=
EXTT3=
EXTT4=
EXTT5=
EXTT6=
EXTT7=
EXTT8=
EXTT9=
EXTT10=
EXTT11=
PLAYORDER=
